<svg xmlns="http://www.w3.org/2000/svg" version="1.0" width="2000.000000pt" height="2000.000000pt" viewBox="0 0 2000.000000 2000.000000" preserveAspectRatio="xMidYMid meet">

<g transform="translate(0.000000,2000.000000) scale(0.100000,-0.100000)" fill="#000000" stroke="none">
<path d="M9798 13480 c-1058 -83 -2002 -669 -2633 -1635 -106 -163 -161 -257 -238 -411 -174 -347 -304 -754 -357 -1117 -134 -907 122 -2002 652 -2794 151 -226 312 -400 513 -554 257 -197 427 -403 560 -681 67 -139 104 -255 151 -462 68 -303 135 -571 159 -631 21 -54 24 -79 28 -265 3 -193 5 -210 32 -289 97 -285 388 -505 749 -567 77 -13 180 -14 656 -12 545 4 568 5 649 26 363 96 609 314 686 608 11 42 15 110 15 239 0 176 1 184 30 262 29 82 86 304 155 613 61 272 115 422 216 597 137 238 280 397 519 579 220 166 491 545 720 1004 228 456 371 922 437 1425 21 163 24 641 5 785 -62 455 -175 827 -372 1225 -322 647 -808 1194 -1385 1558 -430 271 -884 431 -1380 487 -129 14 -442 20 -567 10z m548 -145 c384 -43 730 -148 1084 -331 975 -503 1729 -1545 1915 -2648 91 -541 39 -1122 -154 -1706 -139 -421 -352 -844 -594 -1183 -132 -185 -230 -292 -362 -395 -199 -154 -322 -283 -443 -464 -175 -261 -245 -440 -337 -868 -44 -202 -108 -452 -130 -503 l-15 -37 -413 2 -412 3 -16 365 c-36 781 -41 1005 -46 1890 -5 896 0 1209 29 1698 l12 202 30 0 c17 0 162 -11 321 -25 546 -47 654 -45 781 16 136 65 265 238 322 435 36 120 45 195 45 349 0 181 -19 303 -74 468 -94 284 -260 508 -475 643 -114 71 -171 88 -294 89 -97 0 -110 -2 -170 -31 -149 -71 -267 -228 -366 -486 -101 -266 -187 -675 -229 -1093 -9 -88 -19 -171 -21 -184 l-5 -24 -162 8 c-89 4 -227 11 -307 14 l-145 6 3 320 c5 424 -13 572 -103 840 -134 400 -286 598 -489 636 -260 48 -614 -237 -869 -699 -131 -236 -166 -351 -167 -540 -1 -310 148 -530 413 -611 155 -47 355 -67 786 -77 l280 -7 -5 -1181 c-4 -650 -9 -1595 -13 -2101 l-6 -920 -402 -3 -401 -2 -26 77 c-32 97 -62 220 -121 486 -78 352 -130 505 -238 694 -145 253 -307 439 -542 620 -278 214 -493 486 -688 871 -227 445 -366 898 -433 1404 -22 167 -30 611 -14 776 121 1266 1009 2490 2165 2982 241 103 574 193 815 219 52 6 109 13 125 15 86 10 444 4 561 -9z m-1166 -2168 c128 -76 260 -327 339 -645 51 -204 55 -249 52 -622 -1 -189 -4 -346 -6 -349 -2 -2 -154 1 -337 8 -588 19 -753 54 -874 183 -102 109 -142 281 -114 483 12 84 17 97 91 247 214 432 511 724 739 727 46 1 66 -5 110 -32z m2051 9 c166 -58 339 -227 447 -433 55 -106 105 -261 127 -391 23 -140 17 -372 -14 -487 -52 -197 -170 -359 -291 -401 -76 -26 -252 -23 -635 10 -165 14 -319 26 -344 26 l-44 0 7 88 c40 504 158 1035 292 1307 129 263 266 348 455 281z m-1044 -1795 c67 -4 125 -10 128 -13 4 -3 2 -73 -4 -155 -28 -396 -35 -677 -35 -1468 -1 -900 7 -1201 60 -2397 l7 -148 -328 0 -328 0 6 968 c4 532 10 1477 14 2101 l6 1133 176 -7 c97 -4 231 -10 298 -14z"/>
<path d="M9292 3764 c2 -92 7 -117 29 -164 51 -107 175 -197 329 -237 99 -25 655 -26 754 0 153 39 272 123 325 229 29 57 31 69 31 170 0 102 -1 109 -18 103 -99 -31 -183 -35 -712 -35 -430 0 -554 3 -622 15 -47 8 -93 18 -103 21 -15 6 -17 -2 -13 -102z"/>
<path d="M9580 3234 c8 -69 37 -99 126 -135 54 -21 77 -23 284 -27 244 -4 310 3 397 44 63 30 93 73 93 134 0 33 -3 41 -15 36 -8 -3 -51 -13 -95 -22 -113 -23 -659 -16 -735 9 -27 9 -52 17 -56 17 -3 0 -2 -25 1 -56z"/>
</g>
</svg>