<svg xmlns="http://www.w3.org/2000/svg" version="1.0" width="7972.000000pt" height="7972.000000pt" viewBox="0 0 7972.000000 7972.000000" preserveAspectRatio="xMidYMid meet">

<g transform="translate(0.000000,7972.000000) scale(0.100000,-0.100000)" fill="#000000" stroke="none">
<path d="M55085 64954 c-865 -31 -1189 -50 -1795 -105 -4749 -426 -8950 -2092 -11421 -4530 -1186 -1171 -1933 -2489 -2188 -3864 -30 -162 -64 -407 -81 -590 -12 -120 -29 -2106 -33 -3705 -2 -1046 0 -1171 16 -1320 34 -318 77 -573 142 -847 l34 -141 -30 -168 c-37 -215 -66 -471 -78 -699 -11 -193 -26 -2571 -26 -3860 1 -669 3 -804 18 -945 33 -312 37 -293 -28 -145 -271 621 -608 1177 -1054 1735 -64 80 -127 159 -142 175 -14 17 -76 86 -136 155 -761 868 -1789 1689 -2988 2387 -2718 1583 -6247 2545 -10065 2743 -936 48 -2028 46 -2950 -5 -2664 -150 -5146 -659 -7360 -1510 -1286 -494 -2511 -1133 -3508 -1827 -409 -286 -912 -683 -1182 -933 -363 -337 -509 -483 -748 -749 -872 -969 -1455 -2031 -1721 -3136 -107 -441 -146 -753 -161 -1275 -14 -503 -31 -4201 -19 -4410 22 -406 89 -834 190 -1212 l30 -113 -35 -142 c-110 -451 -151 -772 -166 -1293 -14 -511 -30 -4190 -19 -4410 11 -208 30 -390 61 -593 20 -129 21 -152 9 -225 -61 -408 -72 -573 -77 -1217 -17 -2115 -23 -3854 -14 -4025 87 -1674 855 -3249 2269 -4655 1871 -1859 4775 -3303 8186 -4070 2397 -539 4986 -740 7535 -585 4225 257 8045 1452 10780 3373 185 130 660 489 690 522 3 3 59 50 125 105 220 183 559 493 715 654 510 527 842 935 1154 1421 336 524 645 1179 792 1680 15 52 30 98 34 103 4 4 36 -82 73 -192 158 -474 360 -918 615 -1346 698 -1175 1784 -2261 3192 -3191 1320 -873 2910 -1603 4643 -2133 2864 -877 6070 -1232 9302 -1031 3710 232 7155 1205 9775 2763 1243 739 2255 1577 3033 2509 876 1053 1422 2215 1596 3403 50 340 53 400 61 1405 19 2232 23 3632 11 3805 -14 204 -34 386 -61 554 l-20 123 25 168 c54 365 56 414 65 1390 18 2091 23 3672 11 3840 -28 404 -101 841 -196 1179 -21 76 -22 87 -10 130 87 298 166 798 184 1171 10 193 32 3097 31 4095 0 576 -15 807 -76 1180 -25 154 -81 418 -114 538 l-19 69 29 121 c60 256 103 513 136 812 18 168 26 877 39 3375 8 1409 6 1524 -31 1845 -28 249 -100 638 -149 807 -12 42 -11 62 20 245 43 251 62 420 75 647 5 100 14 944 20 1876 17 2735 16 2785 -35 3195 -32 253 -64 426 -130 690 -306 1238 -1009 2419 -2075 3485 -1132 1132 -2614 2096 -4430 2882 -1775 768 -3875 1329 -6040 1612 -835 110 -1566 172 -2520 217 -214 10 -1594 20 -1785 13z m1820 -853 c618 -31 1208 -75 1695 -126 3118 -331 5945 -1185 8184 -2472 771 -443 1443 -920 2066 -1467 171 -150 679 -660 822 -826 432 -502 757 -979 1012 -1487 306 -612 489 -1219 562 -1868 21 -191 29 -659 15 -860 -74 -1019 -442 -1987 -1110 -2926 -98 -138 -310 -410 -396 -508 -505 -580 -1021 -1055 -1645 -1518 -2498 -1849 -6122 -3046 -10170 -3357 -741 -57 -1296 -78 -2105 -78 -1335 0 -2505 83 -3768 268 -3385 493 -6402 1644 -8542 3258 -608 459 -1190 1005 -1625 1526 -1881 2256 -1972 4854 -250 7145 530 705 1251 1393 2085 1990 1582 1131 3588 2016 5872 2589 1681 421 3397 657 5283 726 302 11 1739 4 2015 -9z m-16430 -11858 c420 -747 1082 -1536 1857 -2215 425 -373 814 -670 1313 -1003 312 -208 310 -207 561 -358 2756 -1661 6363 -2668 10269 -2867 614 -31 1644 -40 2240 -20 3382 115 6435 773 9070 1955 277 125 909 439 1163 580 1181 651 2112 1333 2917 2139 228 228 341 351 586 636 204 237 618 821 744 1050 25 47 49 88 53 92 11 11 3 -1087 -9 -1272 -50 -790 -294 -1573 -727 -2335 -98 -173 -110 -193 -253 -409 -91 -137 -171 -248 -355 -491 -18 -23 -87 -106 -154 -186 -655 -773 -1485 -1473 -2492 -2103 -182 -113 -235 -145 -480 -287 -224 -129 -413 -231 -693 -373 -2423 -1231 -5451 -1987 -8700 -2171 -954 -54 -2058 -54 -3025 1 -4975 279 -9405 1917 -11927 4410 -628 621 -1109 1274 -1458 1979 -334 675 -513 1317 -565 2030 -11 160 -14 1325 -2 1325 4 0 34 -49 67 -107z m-16030 -1823 c3577 -93 6886 -849 9550 -2182 2539 -1271 4263 -2940 4958 -4798 437 -1169 441 -2411 11 -3573 -431 -1162 -1260 -2250 -2454 -3218 -122 -98 -96 -79 -371 -285 -222 -167 -441 -320 -664 -463 -71 -46 -152 -99 -180 -116 -27 -18 -140 -86 -250 -152 -2147 -1285 -4882 -2156 -7935 -2528 -1676 -204 -3436 -248 -5125 -130 -3060 216 -5965 965 -8295 2141 -2475 1248 -4168 2870 -4883 4674 -454 1145 -495 2321 -122 3478 257 796 729 1598 1364 2317 1108 1254 2725 2338 4736 3175 2769 1153 6236 1749 9660 1660z m46865 -2211 c-155 -1732 -1199 -3376 -3030 -4770 -991 -755 -2210 -1425 -3575 -1964 -2113 -835 -4593 -1357 -7175 -1510 -524 -31 -712 -37 -1395 -42 -856 -7 -1448 10 -2155 62 -3405 251 -6525 1131 -8980 2533 -1359 775 -2471 1703 -3235 2697 -576 750 -964 1544 -1151 2356 -34 149 -84 428 -84 469 0 15 25 -17 75 -94 467 -731 1070 -1414 1805 -2047 558 -479 1260 -976 1935 -1369 67 -39 139 -91 185 -134 416 -391 954 -805 1496 -1149 2126 -1352 4939 -2220 8024 -2476 681 -57 1146 -75 1910 -75 644 0 889 7 1420 39 2414 149 4711 682 6650 1541 303 134 867 414 1141 567 886 495 1642 1048 2257 1651 168 165 196 188 335 276 294 185 552 363 853 586 168 124 505 390 589 465 17 14 71 61 120 105 265 230 644 600 858 837 404 446 770 946 1027 1402 95 169 101 178 106 172 3 -3 0 -60 -6 -128z m-30745 -2706 c568 -985 1499 -1979 2639 -2817 2576 -1893 6231 -3138 10281 -3500 1436 -129 2959 -141 4425 -36 2789 201 5380 799 7620 1760 2294 983 4099 2302 5248 3833 165 221 410 586 482 719 23 43 45 80 48 82 11 7 4 -1094 -8 -1269 -95 -1399 -769 -2743 -1985 -3960 -715 -716 -1610 -1374 -2680 -1969 -286 -160 -951 -489 -1283 -635 -2322 -1026 -5101 -1649 -8027 -1801 -843 -43 -1938 -43 -2780 0 -4068 211 -7793 1322 -10455 3119 -1008 681 -1859 1474 -2454 2288 -703 963 -1089 1963 -1166 3018 -11 161 -14 1325 -2 1325 4 -1 48 -71 97 -157z m21520 -3062 c-21 -20 -685 -211 -1060 -305 -1307 -327 -2594 -511 -4120 -588 -332 -17 -1537 -17 -1875 0 -1665 83 -3082 297 -4498 678 -356 95 -373 105 -78 44 2245 -464 4637 -635 7011 -500 1241 71 2492 231 3690 471 260 52 917 198 924 205 2 2 7 4 10 4 3 0 1 -4 -4 -9z m9242 -1043 c-69 -1820 -1155 -3583 -3112 -5054 -462 -348 -1000 -693 -1571 -1009 -305 -169 -924 -475 -1262 -624 -2701 -1194 -6031 -1841 -9482 -1841 -3726 0 -7331 781 -10145 2198 -263 133 -320 163 -520 272 -1673 914 -2983 2047 -3791 3280 -151 232 -253 409 -383 670 -273 548 -446 1091 -525 1650 -34 236 -63 621 -46 604 5 -5 48 -74 95 -154 630 -1052 1594 -2040 2855 -2925 l195 -136 114 -142 c320 -398 743 -825 1171 -1181 1452 -1210 3459 -2162 5766 -2735 2298 -570 4830 -755 7309 -535 3664 325 6934 1535 9032 3341 419 361 822 780 1113 1160 47 61 98 119 115 129 41 25 367 260 490 353 244 185 628 501 785 646 540 500 879 869 1235 1344 178 236 386 555 519 794 21 37 40 67 43 67 4 0 3 -78 0 -172z m-62673 -3128 c488 -780 1271 -1625 2151 -2321 986 -781 2176 -1474 3510 -2047 847 -363 1767 -682 2714 -942 1667 -456 3424 -738 5276 -844 555 -32 851 -40 1545 -40 693 0 989 7 1570 39 4427 246 8435 1517 11175 3545 267 198 670 523 818 658 45 43 148 137 228 210 334 306 761 777 1057 1164 161 212 398 562 497 733 31 55 61 104 66 110 12 12 11 -784 -1 -1100 -29 -758 -200 -1433 -546 -2144 -551 -1135 -1486 -2179 -2776 -3103 -3433 -2457 -8832 -3678 -14278 -3227 -3415 282 -6575 1217 -8974 2654 -234 140 -249 149 -526 330 -212 138 -553 381 -748 533 -1119 871 -1913 1794 -2417 2807 -315 633 -491 1229 -561 1895 -18 173 -32 1162 -19 1367 l7 114 77 -133 c42 -73 112 -189 155 -258z m31909 189 c465 -797 1121 -1561 1945 -2267 1276 -1093 2933 -2021 4872 -2730 1532 -559 3330 -986 5104 -1212 1729 -220 3376 -272 5146 -165 3477 212 6724 1066 9275 2440 1020 549 1932 1184 2675 1862 593 540 1086 1112 1489 1723 75 113 159 247 186 298 28 50 52 92 55 92 9 0 0 -1105 -10 -1270 -84 -1276 -665 -2529 -1701 -3665 -140 -153 -479 -492 -629 -627 -1154 -1040 -2689 -1942 -4461 -2621 -2080 -798 -4498 -1297 -6984 -1442 -924 -54 -2028 -59 -2915 -15 -4263 215 -8135 1406 -10815 3328 -306 219 -582 439 -890 708 -203 177 -644 615 -809 804 -951 1087 -1472 2190 -1612 3410 -14 117 -18 276 -21 830 -3 442 -1 681 5 675 6 -5 48 -76 95 -156z m24347 -1843 c0 -16 -578 -322 -865 -459 -2962 -1406 -6816 -1963 -10590 -1531 -2082 238 -3997 762 -5653 1548 -292 138 -790 401 -780 412 3 2 113 -37 247 -86 2115 -782 4521 -1266 7026 -1415 604 -35 791 -40 1645 -40 852 0 1033 5 1640 40 1968 117 3896 446 5665 969 486 143 1062 338 1470 495 181 70 195 75 195 67z m-25631 -2344 c-22 -504 -101 -930 -264 -1417 -266 -798 -701 -1529 -1356 -2280 -141 -162 -580 -601 -759 -761 -1293 -1146 -2963 -2081 -4975 -2783 -272 -95 -262 -92 -575 -191 -2742 -868 -6006 -1241 -9145 -1045 -3495 219 -6738 1113 -9250 2550 -1000 572 -1799 1169 -2501 1870 -645 644 -1086 1240 -1438 1945 -348 698 -536 1387 -576 2115 -12 230 -13 282 -1 270 5 -6 55 -86 111 -179 607 -1010 1535 -1973 2727 -2828 113 -81 140 -106 189 -174 1349 -1882 3941 -3411 7129 -4208 1388 -346 2704 -534 4340 -618 328 -17 1610 -17 1955 0 1112 54 2067 162 3053 343 2635 484 4963 1449 6658 2759 653 505 1234 1095 1653 1680 76 105 111 145 159 179 554 397 1014 786 1462 1235 562 563 1001 1129 1341 1724 l59 103 7 -38 c4 -21 2 -134 -3 -251z m32048 16 c-7 -260 -24 -439 -67 -692 -305 -1811 -1623 -3535 -3757 -4914 -2624 -1695 -6230 -2735 -10198 -2942 -857 -44 -1967 -44 -2800 0 -3667 197 -7051 1126 -9645 2647 -184 108 -268 160 -534 328 -74 47 -277 185 -430 292 -276 192 -660 493 -943 740 -209 182 -707 679 -874 873 -391 453 -686 875 -935 1340 -409 761 -633 1564 -661 2367 -3 100 -4 183 0 183 3 0 20 -26 38 -57 256 -453 641 -972 1055 -1423 162 -177 502 -515 679 -674 308 -280 744 -629 1095 -876 58 -41 109 -81 113 -88 5 -7 62 -85 127 -172 994 -1329 2601 -2478 4640 -3317 1843 -758 4032 -1239 6275 -1378 910 -56 1876 -59 2750 -9 2258 129 4385 580 6244 1324 2147 860 3832 2073 4829 3476 69 97 80 108 225 212 778 561 1492 1230 2032 1902 270 336 477 639 694 1018 23 39 45 72 48 72 3 0 3 -105 0 -232z m-62766 -3028 c351 -593 829 -1183 1434 -1771 1077 -1047 2606 -2020 4340 -2761 2300 -984 4983 -1592 7800 -1768 590 -36 756 -42 1496 -47 744 -5 1148 2 1709 32 3090 167 5939 811 8375 1893 1493 663 2827 1513 3840 2444 342 315 753 749 988 1043 240 301 533 722 658 945 34 61 64 110 67 110 9 0 -7 -1213 -18 -1335 -52 -581 -174 -1076 -397 -1613 -447 -1078 -1268 -2111 -2403 -3022 -942 -756 -2116 -1440 -3419 -1990 -2140 -904 -4648 -1472 -7301 -1655 -1959 -134 -3945 -53 -5860 241 -3682 565 -6878 1896 -8987 3742 -211 184 -582 549 -765 751 -1045 1154 -1618 2406 -1698 3711 -11 183 -14 1083 -3 1204 l6 77 17 -28 c9 -15 64 -107 121 -203z m31959 108 c420 -763 1127 -1600 1955 -2313 1139 -982 2560 -1821 4240 -2505 2223 -905 4862 -1476 7555 -1635 542 -32 698 -37 1405 -42 1200 -9 2107 34 3215 153 4389 469 8224 1969 10658 4166 324 292 690 673 982 1022 239 285 589 781 725 1027 25 46 49 87 53 91 4 4 6 -82 5 -190 -2 -108 -5 -408 -7 -667 -4 -505 -13 -625 -72 -955 -262 -1490 -1213 -2929 -2744 -4155 -91 -72 -228 -178 -305 -235 -77 -57 -156 -115 -175 -130 -84 -63 -370 -258 -540 -367 -2395 -1541 -5585 -2542 -9125 -2863 -826 -74 -1501 -103 -2410 -103 -651 0 -967 8 -1515 38 -3796 214 -7305 1218 -9900 2833 -1479 921 -2586 1990 -3274 3162 -425 724 -665 1430 -763 2245 -12 101 -16 281 -20 818 -3 378 -1 687 4 687 4 0 28 -37 53 -82z m-7095 -1536 c-21 -19 -369 -234 -515 -320 -365 -212 -869 -468 -1275 -648 -1768 -781 -3835 -1274 -6050 -1443 -587 -45 -1017 -61 -1660 -61 -652 0 -1140 19 -1795 71 -2713 212 -5261 938 -7211 2054 -207 119 -535 320 -543 334 -3 4 137 -49 312 -119 2281 -917 4854 -1465 7622 -1625 580 -33 834 -39 1580 -39 747 0 997 6 1585 40 2787 160 5424 730 7700 1664 110 45 206 86 215 90 19 12 47 13 35 2z m31952 -103 c-1290 -835 -2981 -1508 -4822 -1918 -1146 -255 -2233 -399 -3565 -472 -315 -17 -1373 -23 -1750 -10 -3172 110 -6067 852 -8294 2128 -304 174 -575 346 -506 320 8 -3 143 -57 300 -120 4909 -1976 11341 -2213 16635 -612 675 204 1461 487 2010 723 111 48 108 37 -8 -39z m-56635 -2830 c576 -874 1472 -1769 2528 -2523 1030 -735 2166 -1344 3500 -1876 135 -53 326 -138 425 -187 760 -381 1654 -729 2581 -1007 2856 -854 6205 -1080 9319 -630 1964 284 3724 803 5310 1566 160 77 424 193 588 259 2540 1020 4473 2379 5714 4019 98 130 271 381 332 483 13 21 25 36 28 33 7 -6 -76 -265 -139 -436 -193 -527 -503 -1088 -880 -1591 -243 -325 -451 -563 -783 -894 -299 -300 -610 -578 -861 -771 -28 -21 -107 -82 -175 -135 -275 -213 -725 -520 -1069 -731 -2431 -1491 -5666 -2446 -9220 -2723 -1296 -100 -2705 -106 -3980 -15 -3037 217 -5872 941 -8200 2096 -234 116 -325 163 -600 312 -653 353 -1381 837 -1947 1294 -498 402 -1027 924 -1390 1373 -428 528 -759 1075 -998 1650 -62 148 -215 588 -215 616 0 19 4 13 132 -182z m32268 -354 c427 -566 950 -1116 1530 -1606 1158 -977 2615 -1821 4295 -2486 132 -52 263 -108 290 -123 28 -16 154 -77 280 -138 2039 -971 4427 -1561 7010 -1731 594 -40 799 -46 1530 -46 704 0 884 5 1445 41 2601 162 5057 772 7090 1760 151 73 385 177 520 230 1481 584 2797 1318 3890 2168 85 66 177 138 204 161 813 675 1450 1363 1910 2063 59 89 109 162 111 162 5 0 -18 -82 -72 -245 -386 -1180 -1208 -2306 -2417 -3308 -942 -780 -2131 -1487 -3466 -2060 -2246 -963 -4948 -1557 -7790 -1712 -912 -49 -1967 -51 -2875 -5 -3432 176 -6728 1037 -9243 2414 -1197 655 -2121 1343 -2927 2177 -686 710 -1205 1505 -1516 2323 -55 145 -149 432 -149 455 0 9 50 -60 111 -154 61 -93 169 -246 239 -340z m-32495 -1315 c555 -952 1445 -1903 2568 -2743 1524 -1141 3492 -2071 5722 -2706 1927 -548 3982 -858 6180 -932 389 -13 1686 -6 2020 10 1546 78 2803 227 4125 491 2783 554 5195 1516 7118 2839 172 118 612 446 727 542 50 41 155 129 235 195 214 178 384 336 680 633 302 303 561 600 802 919 166 218 448 638 510 758 18 35 37 64 42 64 12 0 0 -1167 -14 -1325 -38 -437 -117 -816 -255 -1230 -412 -1236 -1277 -2388 -2565 -3419 -1596 -1278 -3776 -2297 -6265 -2931 -3578 -911 -7636 -1009 -11345 -274 -1679 333 -3227 823 -4629 1466 -207 95 -742 360 -896 445 -55 30 -131 72 -170 93 -212 116 -599 346 -773 459 -37 24 -121 78 -186 121 -396 255 -895 634 -1283 972 -190 165 -687 659 -839 833 -1007 1150 -1546 2355 -1624 3630 -11 181 -14 1143 -3 1228 l6 54 17 -29 c9 -15 52 -89 95 -163z m32001 33 c168 -307 541 -824 873 -1211 1353 -1577 3436 -2908 6012 -3840 2111 -764 4567 -1245 7034 -1377 878 -47 1927 -48 2825 -5 3806 185 7337 1131 10035 2688 586 338 1275 803 1689 1141 630 513 1067 939 1527 1486 218 260 567 753 714 1010 31 55 60 103 63 107 4 4 6 -43 5 -105 -2 -62 -5 -362 -7 -667 -4 -648 -15 -773 -102 -1195 -354 -1727 -1667 -3397 -3704 -4712 -2618 -1691 -6149 -2726 -10055 -2948 -955 -54 -2054 -54 -3025 1 -3969 222 -7633 1315 -10250 3057 -1335 889 -2345 1913 -2965 3007 -435 767 -676 1536 -735 2345 -12 172 -14 1338 -1 1331 5 -3 35 -54 67 -113z"/>
<path d="M55290 63343 c-1060 -23 -2183 -129 -3220 -304 -3469 -586 -6406 -1985 -8107 -3864 -908 -1002 -1429 -2086 -1569 -3265 -22 -183 -30 -671 -15 -870 116 -1511 914 -2942 2326 -4171 422 -367 1006 -786 1543 -1109 2549 -1528 5999 -2379 9647 -2380 4461 -1 8567 1276 11095 3449 189 163 247 217 475 446 474 473 856 966 1147 1480 843 1485 943 3066 289 4593 -196 457 -490 947 -825 1377 -240 307 -711 804 -1021 1076 -1718 1512 -4240 2632 -7145 3173 -1491 277 -3061 403 -4620 369z m1175 -843 c3304 -107 6292 -896 8565 -2260 706 -424 1290 -871 1801 -1380 370 -368 612 -660 854 -1025 182 -276 352 -588 460 -845 664 -1582 362 -3216 -867 -4685 -124 -148 -460 -511 -498 -538 -10 -7 -54 -47 -98 -88 -342 -324 -726 -626 -1187 -934 -1808 -1209 -4246 -2038 -6965 -2370 -954 -116 -1803 -162 -2845 -152 -599 6 -760 11 -1240 42 -3042 197 -5864 1022 -7945 2323 -1578 986 -2626 2170 -3069 3466 -95 278 -156 539 -198 854 -22 163 -25 760 -5 922 50 399 137 741 279 1100 497 1261 1617 2436 3228 3387 2197 1298 5182 2078 8345 2182 364 12 1033 12 1385 1z"/>
<path d="M61116 60489 c-494 -287 -574 -330 -600 -326 -17 3 -110 24 -206 46 -651 148 -1271 209 -2005 198 -398 -6 -614 -20 -955 -63 -1824 -228 -3297 -1028 -3808 -2065 -91 -187 -151 -375 -183 -574 -19 -115 -16 -398 5 -520 52 -308 180 -607 378 -879 27 -37 46 -72 41 -76 -4 -4 -51 -32 -103 -62 -52 -30 -678 -394 -1390 -808 -712 -413 -1396 -811 -1520 -883 -124 -71 -288 -167 -365 -212 -123 -72 -408 -237 -1700 -988 -170 -99 -314 -182 -318 -184 -20 -11 -121 248 -153 392 -25 113 -30 363 -9 486 83 501 432 955 1018 1323 l88 55 -68 39 c-37 22 -232 135 -433 251 l-364 210 -36 -21 c-102 -60 -389 -258 -485 -334 -155 -123 -423 -395 -527 -534 -161 -216 -265 -408 -337 -626 -157 -469 -125 -922 99 -1379 71 -145 133 -249 207 -347 24 -31 43 -60 43 -65 0 -4 -182 -114 -405 -243 -222 -129 -401 -238 -397 -242 4 -3 63 -39 132 -79 349 -200 592 -341 654 -377 l69 -40 116 68 c64 37 198 115 299 174 101 58 188 106 192 106 5 0 58 -33 117 -74 166 -113 299 -191 527 -307 204 -104 208 -107 185 -122 -13 -8 -96 -56 -184 -107 -88 -51 -213 -124 -278 -162 l-118 -70 432 -249 c237 -137 433 -249 434 -249 1 0 184 106 406 235 330 193 409 235 434 232 17 -2 122 -25 235 -50 548 -124 1075 -184 1700 -194 371 -6 637 3 950 33 1902 178 3452 947 4048 2009 112 200 195 443 228 668 22 152 15 438 -16 582 -60 281 -207 599 -389 843 -22 28 -23 34 -10 46 7 7 230 138 494 291 264 152 532 307 595 344 63 37 219 128 345 201 127 73 266 155 310 181 191 112 3593 2088 3621 2102 l32 16 36 -80 c48 -105 91 -237 113 -346 23 -120 23 -366 0 -486 -50 -252 -170 -499 -354 -727 -144 -178 -417 -412 -647 -554 -52 -33 -93 -62 -91 -66 4 -7 63 -42 542 -318 l312 -180 119 74 c732 453 1193 1030 1328 1661 50 232 43 539 -16 774 -64 250 -217 565 -371 760 -22 28 -26 39 -16 46 6 6 263 155 570 333 306 178 554 327 550 331 -5 4 -198 118 -431 252 l-423 245 -447 -260 c-246 -143 -457 -265 -469 -270 -18 -9 -44 4 -180 95 -183 122 -335 209 -535 308 -79 38 -144 73 -145 77 -2 4 75 52 170 107 554 320 723 419 734 429 9 8 -94 72 -413 256 -234 135 -429 246 -432 247 -4 2 -263 -146 -576 -328z m-2421 -789 c131 -5 311 -17 400 -26 165 -16 484 -60 492 -67 3 -4 -342 -206 -1207 -707 -374 -217 -2720 -1581 -2795 -1625 -358 -210 -836 -485 -843 -485 -13 0 -84 164 -115 265 -57 184 -74 443 -41 630 43 250 165 505 351 735 148 183 420 416 665 570 137 86 470 253 638 319 597 237 1311 375 2025 394 55 2 120 4 145 5 25 1 153 -3 285 -8z m2167 -476 c211 -94 433 -220 608 -345 119 -86 135 -98 129 -102 -2 -2 -132 -78 -289 -169 -157 -91 -1389 -808 -2739 -1592 l-2454 -1426 -131 88 c-72 49 -194 126 -271 172 -197 117 -384 246 -384 265 0 6 93 64 207 129 321 185 478 276 872 506 201 117 421 245 490 285 69 40 375 217 680 395 305 178 611 355 680 395 167 96 599 347 680 395 265 157 1807 1050 1812 1050 5 0 54 -21 110 -46z m-6305 -3688 c60 -40 178 -115 263 -166 256 -154 429 -275 413 -290 -4 -5 -143 -87 -308 -183 -1561 -907 -2967 -1724 -3045 -1769 -52 -30 -538 -313 -1080 -628 l-984 -572 -56 23 c-100 40 -313 150 -440 225 -156 94 -345 225 -345 241 0 10 381 236 1180 698 88 51 921 535 1850 1075 930 540 1834 1066 2010 1168 176 102 345 200 375 218 30 18 56 34 57 34 1 0 51 -33 110 -74z m1297 -1173 c43 -87 95 -238 116 -341 171 -843 -454 -1653 -1645 -2130 -888 -355 -2001 -479 -3070 -342 -201 26 -278 41 -268 51 6 6 3654 2128 4773 2777 30 17 58 32 62 32 4 0 18 -21 32 -47z"/>
<path d="M22980 49640 c-2739 -110 -5228 -659 -7370 -1628 -214 -96 -805 -395 -1021 -515 -664 -371 -1272 -786 -1794 -1226 -277 -233 -677 -625 -902 -881 -1024 -1170 -1542 -2477 -1510 -3810 7 -266 23 -440 63 -680 171 -1025 656 -1998 1451 -2912 245 -282 710 -728 1058 -1013 963 -789 2281 -1520 3700 -2052 2280 -854 5027 -1293 7715 -1233 250 5 491 12 535 15 44 3 170 10 280 15 2071 108 4183 535 5950 1202 694 262 1404 588 1965 901 1326 740 2352 1592 3073 2552 460 613 794 1272 981 1937 206 728 241 1516 100 2240 -93 484 -237 904 -469 1373 -425 860 -1056 1630 -1945 2377 -142 119 -169 139 -420 328 -913 685 -2087 1310 -3354 1784 -1731 649 -3706 1058 -5756 1191 -129 8 -323 20 -430 26 -242 13 -1622 20 -1900 9z m1251 -830 c1508 -32 2838 -188 4204 -491 1672 -372 3181 -943 4466 -1689 766 -445 1421 -940 1969 -1490 522 -523 892 -1027 1175 -1605 240 -489 380 -963 437 -1480 20 -183 17 -683 -5 -865 -121 -983 -565 -1895 -1343 -2760 -138 -154 -458 -469 -619 -611 -1197 -1051 -2836 -1903 -4763 -2479 -3813 -1137 -8399 -1084 -12149 141 -1073 351 -2092 809 -2952 1326 -189 114 -595 385 -776 518 -1004 738 -1731 1547 -2170 2415 -308 610 -465 1205 -482 1830 -30 1131 382 2188 1255 3215 185 218 561 593 798 795 1200 1026 2789 1846 4679 2414 1684 506 3648 796 5540 819 105 1 213 3 240 5 28 1 251 -3 496 -8z"/>
<path d="M29585 46914 c-258 -151 -513 -299 -566 -329 l-96 -55 -170 40 c-868 202 -1809 264 -2728 179 -979 -90 -1865 -333 -2600 -713 -1463 -758 -2042 -1927 -1499 -3027 51 -101 151 -263 239 -385 5 -7 7 -15 4 -18 -4 -4 -1756 -1024 -2269 -1321 -69 -40 -375 -217 -680 -395 -305 -178 -611 -355 -680 -395 -164 -94 -597 -346 -680 -395 -277 -164 -1085 -630 -1091 -630 -14 0 -68 116 -104 223 -58 176 -70 251 -70 447 1 153 4 189 27 286 106 451 425 861 924 1189 71 46 137 90 147 97 16 12 -30 41 -413 262 l-431 248 -92 -55 c-262 -158 -473 -322 -698 -547 -369 -368 -568 -714 -660 -1145 -21 -98 -24 -135 -24 -340 1 -260 12 -335 86 -560 62 -193 210 -470 338 -636 l20 -26 -410 -238 c-225 -130 -408 -239 -407 -240 13 -10 859 -495 864 -495 4 0 139 77 302 172 162 94 300 171 306 171 6 0 74 -43 151 -95 168 -114 314 -198 534 -308 90 -45 160 -85 155 -90 -5 -4 -141 -84 -301 -178 l-293 -169 432 -249 c238 -137 436 -248 440 -246 5 1 190 108 413 237 l403 235 144 -34 c954 -229 2034 -284 3047 -155 1229 155 2302 565 3056 1166 127 101 372 342 465 457 347 431 519 928 480 1389 -32 384 -161 704 -435 1083 -5 7 -7 15 -5 17 3 2 124 73 270 157 146 84 301 174 345 200 44 26 388 227 765 445 377 219 834 484 1015 590 1980 1153 3006 1745 3014 1741 15 -10 89 -187 116 -281 42 -145 58 -272 52 -425 -10 -279 -95 -529 -263 -777 -174 -257 -385 -457 -701 -666 -130 -86 -149 -103 -135 -112 13 -9 795 -460 834 -482 12 -6 65 24 228 132 771 509 1212 1149 1259 1827 28 419 -89 819 -356 1216 -72 106 -83 127 -70 136 8 6 262 155 566 331 303 176 551 322 551 325 0 3 -193 117 -429 254 l-430 247 -467 -272 c-309 -179 -472 -268 -480 -263 -198 144 -499 322 -716 424 -65 30 -118 58 -118 61 0 3 209 126 464 275 362 210 460 271 448 278 -10 5 -203 117 -430 248 -227 131 -419 238 -425 237 -7 0 -223 -124 -482 -275z m-2175 -859 c187 -17 527 -63 547 -74 7 -4 -1021 -607 -2404 -1411 -1329 -773 -2420 -1407 -2425 -1408 -21 -9 -121 252 -153 398 -25 113 -30 354 -11 470 55 334 222 643 499 922 627 630 1712 1037 2977 1117 203 13 760 5 970 -14z m1863 -470 c223 -102 486 -256 650 -383 48 -36 56 -47 45 -57 -11 -10 -710 -418 -1553 -905 -138 -80 -485 -282 -2060 -1198 -308 -179 -585 -340 -615 -357 -30 -17 -319 -185 -642 -373 -323 -188 -592 -342 -598 -342 -6 0 -59 33 -118 74 -59 40 -176 115 -260 165 -205 122 -412 263 -412 279 0 4 12 14 28 23 15 8 457 265 982 571 525 305 998 580 1050 610 123 71 485 281 1330 773 1111 645 1398 813 1715 998 165 96 308 176 318 176 10 1 73 -24 140 -54z m-6311 -3688 c68 -46 195 -127 283 -180 185 -111 370 -239 370 -255 0 -7 -61 -47 -135 -90 -221 -128 -1479 -860 -1835 -1067 -2203 -1282 -3443 -1999 -3457 -1998 -31 3 -359 167 -493 247 -151 91 -346 227 -342 239 2 7 520 311 1082 636 55 32 444 258 865 503 421 245 797 463 835 485 39 22 277 160 530 308 1936 1126 2158 1255 2166 1255 5 0 63 -38 131 -83z m1299 -1216 c266 -617 77 -1285 -505 -1790 -368 -319 -768 -538 -1316 -721 -883 -296 -1927 -377 -2932 -229 -82 12 -148 25 -148 28 0 3 130 81 288 172 279 161 3462 2010 4192 2435 201 117 369 209 373 205 4 -4 26 -49 48 -100z"/>
</g>
</svg>